# File created by Blade
# Date/Time:  Thu Jan 22 16:31:19 2015
#---------------------------------------------------------
:version 1.10
:name HOM
:units
  mass 1.0
  length 1.000000
  angle deg
:documentation
     Acclaim Skeleton File
:root
   axis xyz
   order TX TY TZ RX RY RZ
   position 0.000000 0.000000 0.000000
   orientation 0 0 0
:bonedata
   begin
      id 1
      name RightUpLeg_dum
      direction -1.000000 0.000000 0.000000
      length 3.766986
      axis 0.0 0.0 0.0 xyz
   end
   begin
      id 2
      name LeftUpLeg_dum
      direction 1.000000 0.000000 0.000000
      length 3.766986
      axis 0.0 0.0 0.0 xyz
   end
   begin
      id 3
      name Spine_dum
      direction 0.000000 1.000000 0.000000
      length 7.779697
      axis 0.0 0.0 0.0 xyz
   end
   begin
      id 4
      name RightUpLeg
      direction 0.000000 -1.000000 0.000000
      length 18.017682
      axis 0.0 0.0 0.0 xyz
      dof rx ry rz
   end
   begin
      id 5
      name RightLeg
      direction 0.000000 -1.000000 0.000000
      length 16.881075
      axis 0.0 0.0 0.0 xyz
      dof rx ry rz
   end
   begin
      id 6
      name RightFoot
      direction 0.000000 -0.258819 0.965926
      length 5.770812
      axis 15.0 0.0 0.0 xyz
      dof rx ry rz
   end
   begin
      id 7
      name RightToeBase
      direction 0.000000 0.000000 1.000000
      length 2.952750
      axis 0.0 0.0 0.0 xyz
      dof rx ry rz
   end
   begin
      id 8
      name LeftUpLeg
      direction 0.000000 -1.000000 0.000000
      length 18.017682
      axis 0.0 0.0 0.0 xyz
      dof rx ry rz
   end
   begin
      id 9
      name LeftLeg
      direction 0.000000 -1.000000 0.000000
      length 16.881075
      axis 0.0 0.0 0.0 xyz
      dof rx ry rz
   end
   begin
      id 10
      name LeftFoot
      direction 0.000000 -0.258819 0.965926
      length 5.770812
      axis 15.0 0.0 0.0 xyz
      dof rx ry rz
   end
   begin
      id 11
      name LeftToeBase
      direction 0.000000 0.000000 1.000000
      length 2.952750
      axis 0.0 0.0 0.0 xyz
      dof rx ry rz
   end
   begin
      id 12
      name Spine
      direction 0.000000 1.000000 0.000000
      length 0.000000
      axis 0.0 0.0 0.0 xyz
      dof rx ry rz
   end
   begin
      id 13
      name Spine_dum1
      direction 0.000000 1.000000 0.000000
      length 10.941760
      axis 0.0 0.0 0.0 xyz
   end
   begin
      id 14
      name Spine_dum2
      direction 0.000000 1.000000 0.000000
      length 10.941760
      axis 0.0 0.0 0.0 xyz
   end
   begin
      id 15
      name Spine_dum3
      direction 0.000000 1.000000 0.000000
      length 16.646042
      axis 0.0 0.0 0.0 xyz
   end
   begin
      id 16
      name RightShoulder
      direction -1.000000 0.000000 0.000000
      length 7.708937
      axis 0.0 0.0 90.0 xyz
      dof rx ry rz
   end
   begin
      id 17
      name RightArm
      direction -1.000000 0.000000 0.000000
      length 11.521345
      axis 0.0 0.0 90.0 xyz
      dof rx ry rz
   end
   begin
      id 18
      name RightForeArm
      direction -1.000000 0.000000 0.000000
      length 10.175898
      axis 0.0 0.0 90.0 xyz
      dof ry rz rx
   end
   begin
      id 19
      name RightHand
      direction -1.000000 0.000000 0.000000
      length 0.000000
      axis 0.0 0.0 90.0 xyz
      dof rx ry rz
   end
   begin
      id 20
      name RightHand_dum1
      direction -1.000000 0.000000 0.000000
      length 3.937000
      axis 0.0 0.0 90.0 xyz
   end
   begin
      id 21
      name RightHand_dum2
      direction 0.000000 0.000000 0.000000
      length 0.000000
      axis 0.0 0.0 90.0 xyz
   end
   begin
      id 22
      name RightHandThumb1
      direction 0.000000 0.000000 1.000000
      length 3.937000
      axis 0.0 0.0 90.0 xyz
      dof rx rz ry
   end
   begin
      id 23
      name LeftShoulder
      direction 1.000000 0.000000 0.000000
      length 7.708937
      axis 0.0 0.0 -90.0 xyz
      dof rx ry rz
   end
   begin
      id 24
      name LeftArm
      direction 1.000000 0.000000 0.000000
      length 11.521345
      axis 0.0 0.0 -90.0 xyz
      dof rx ry rz
   end
   begin
      id 25
      name LeftForeArm
      direction 1.000000 0.000000 0.000000
      length 10.175898
      axis 0.0 0.0 -90.0 xyz
      dof ry rz rx
   end
   begin
      id 26
      name LeftHand
      direction 1.000000 0.000000 0.000000
      length 0.000000
      axis 0.0 0.0 -90.0 xyz
      dof rx ry rz
   end
   begin
      id 27
      name LeftHand_dum1
      direction 1.000000 0.000000 0.000000
      length 3.937000
      axis 0.0 0.0 -90.0 xyz
   end
   begin
      id 28
      name LeftHand_dum2
      direction 0.000000 0.000000 0.000000
      length 0.000000
      axis 0.0 0.0 -90.0 xyz
   end
   begin
      id 29
      name LeftHandThumb1
      direction 0.000000 0.000000 1.000000
      length 3.937000
      axis 0.0 0.0 -90.0 xyz
      dof rx rz ry
   end
   begin
      id 30
      name Head
      direction 0.000000 1.000000 0.000000
      length 4.527550
      axis 0.0 0.0 0.0 xyz
      dof rx ry rz
   end
:hierarchy
   begin
      root RightUpLeg_dum LeftUpLeg_dum Spine_dum
      RightUpLeg_dum RightUpLeg
      LeftUpLeg_dum LeftUpLeg
      Spine_dum Spine
      RightUpLeg RightLeg
      RightLeg RightFoot
      RightFoot RightToeBase
      LeftUpLeg LeftLeg
      LeftLeg LeftFoot
      LeftFoot LeftToeBase
      Spine Spine_dum1 Spine_dum2 Spine_dum3
      Spine_dum1 RightShoulder
      Spine_dum2 LeftShoulder
      Spine_dum3 Head
      RightShoulder RightArm
      RightArm RightForeArm
      RightForeArm RightHand
      RightHand RightHand_dum1 RightHand_dum2
      RightHand_dum2 RightHandThumb1
      LeftShoulder LeftArm
      LeftArm LeftForeArm
      LeftForeArm LeftHand
      LeftHand LeftHand_dum1 LeftHand_dum2
      LeftHand_dum2 LeftHandThumb1
   end

# File created by Blade
# Date/Time:  Thu Jan 22 16:31:11 2015
# Frame Rate: 120.000 fps
#------------------------------------------------------
:FULLY-SPECIFIED
:DEGREES
280
root 20.584889 25.305887 0.391751 17.369837 26.113370 -14.541537
RightUpLeg 3.729158 -18.617193 -27.498956
RightLeg -6.491300 -0.000000 0.000000
RightFoot -10.226542 -2.630336 49.303472
RightToeBase 14.076258 -0.000000 -0.000000
LeftUpLeg -91.599243 33.446617 5.999797
LeftLeg 94.507728 -0.000000 -0.000000
LeftFoot -29.069837 5.093240 -20.426097
LeftToeBase 5.957110 -0.000000 -0.000000
Spine 32.041460 -8.651832 -35.243387
RightShoulder -5.036590 -12.235090 -24.047309
RightArm -2.498986 36.613143 44.859267
RightForeArm 34.497747 0.000000 18.973601
RightHand 12.547917 -0.000000 -27.959536
RightHandThumb1 -24.326973 -0.000000 -32.862282
LeftShoulder -13.781967 30.479075 12.432941
LeftArm 45.689261 -38.390327 -63.358017
LeftForeArm 15.649766 -0.000000 14.549093
LeftHand -20.312777 0.000000 19.225670
LeftHandThumb1 -26.253704 0.000000 33.147579
Head -15.416391 31.813010 -7.890938
281
root 20.644771 25.189896 0.398883 17.323112 26.112362 -14.761098
RightUpLeg 3.801513 -18.539718 -27.518603
RightLeg -6.521625 -0.000000 0.000000
RightFoot -10.268519 -2.551224 49.532666
RightToeBase 14.019812 -0.000000 -0.000000
LeftUpLeg -91.978748 33.454549 6.161561
LeftLeg 95.129895 -0.000000 -0.000000
LeftFoot -29.236528 5.098351 -20.497454
LeftToeBase 5.717410 -0.000000 -0.000000
Spine 32.054644 -8.542869 -35.487675
RightShoulder -5.044562 -12.199355 -24.063858
RightArm -2.707143 36.563831 44.615696
RightForeArm 34.733203 -0.000000 18.893893
RightHand 12.586371 -0.000000 -28.184293
RightHandThumb1 -24.326973 -0.000000 -32.862282
LeftShoulder -13.705826 30.404348 12.371674
LeftArm 45.425408 -38.620562 -63.189512
LeftForeArm 14.706977 -0.000000 14.519771
LeftHand -20.443898 0.000000 19.320954
LeftHandThumb1 -26.253704 0.000000 33.147579
Head -15.424209 31.672122 -8.010933
282
root 20.707929 25.072918 0.409326 17.237971 26.127630 -14.974487
RightUpLeg 3.931884 -18.498052 -27.553477
RightLeg -6.562369 -0.000000 0.000000
RightFoot -10.243091 -2.503592 49.652613
RightToeBase 13.853822 -0.000000 -0.000000
LeftUpLeg -92.319694 33.459782 6.328687
LeftLeg 95.763199 -0.000000 -0.000000
LeftFoot -29.493149 4.941335 -20.720570
LeftToeBase 5.849734 -0.000000 -0.000000
Spine 32.113025 -8.436192 -35.729228
RightShoulder -5.086553 -12.275748 -24.038827
RightArm -2.766805 36.616750 44.423645
RightForeArm 34.917940 -0.000000 18.792892
RightHand 12.698270 -0.000000 -28.501656
RightHandThumb1 -24.326973 -0.000000 -32.862282
LeftShoulder -13.628147 30.367919 12.302240
LeftArm 45.296822 -38.936855 -63.144383
LeftForeArm 13.906810 -0.000000 14.360757
LeftHand -20.450082 -0.000000 19.744013
LeftHandThumb1 -26.253704 0.000000 33.147579
Head -15.433571 31.541005 -8.114337
283
root 20.774997 24.954576 0.419749 17.144503 26.153889 -15.152208
RightUpLeg 4.112469 -18.502220 -27.634725
RightLeg -6.621693 -0.000000 0.000000
RightFoot -10.207222 -2.423596 49.814037
RightToeBase 13.835633 -0.000000 -0.000000
LeftUpLeg -92.642043 33.426522 6.477403
LeftLeg 96.391895 -0.000000 -0.000000
LeftFoot -29.677592 4.922684 -20.813936
LeftToeBase 5.809738 -0.000000 -0.000000
Spine 32.204902 -8.345967 -36.000233
RightShoulder -5.087403 -12.226981 -24.057087
RightArm -2.987297 36.558164 44.171393
RightForeArm 35.136453 0.000000 18.694311
RightHand 12.589814 -0.000000 -28.640510
RightHandThumb1 -24.326973 -0.000000 -32.862282
LeftShoulder -13.588011 30.328552 12.233500
LeftArm 45.226048 -39.247209 -63.157115
LeftForeArm 13.072782 -0.000000 14.212822
LeftHand -20.740552 -0.000000 20.156581
LeftHandThumb1 -26.253704 0.000000 33.147579
Head -15.453321 31.400943 -8.226788
284
root 20.837550 24.841853 0.427276 17.068147 26.228180 -15.352806
RightUpLeg 4.276836 -18.519565 -27.660103
RightLeg -6.677477 -0.000000 0.000000
RightFoot -10.236885 -2.423717 50.026606
RightToeBase 13.820002 -0.000000 -0.000000
LeftUpLeg -93.019302 33.396112 6.587423
LeftLeg 97.003165 -0.000000 -0.000000
LeftFoot -29.868457 4.871013 -20.798753
LeftToeBase 5.624983 -0.000000 -0.000000
Spine 32.314790 -8.300319 -36.239312
RightShoulder -5.107303 -12.197885 -24.038822
RightArm -3.190587 36.580642 43.918193
RightForeArm 35.381397 0.000000 18.621995
RightHand 12.595621 0.000000 -28.789727
RightHandThumb1 -24.326973 -0.000000 -32.862282
LeftShoulder -13.529077 30.234498 12.228855
LeftArm 45.056196 -39.530614 -63.162666
LeftForeArm 12.227027 -0.000000 14.111035
LeftHand -21.051623 -0.000000 20.604020
LeftHandThumb1 -26.253704 0.000000 33.147579
Head -15.516226 31.226661 -8.317093
285
root 20.900041 24.729686 0.436380 16.954929 26.345527 -15.534273
RightUpLeg 4.504111 -18.595753 -27.706415
RightLeg -6.727833 -0.000000 0.000000
RightFoot -10.255715 -2.430518 50.231627
RightToeBase 13.898155 -0.000000 -0.000000
LeftUpLeg -93.355635 33.314226 6.709678
LeftLeg 97.587054 -0.000000 -0.000000
LeftFoot -30.021222 4.888755 -20.768138
LeftToeBase 5.431814 -0.000000 -0.000000
Spine 32.504049 -8.268446 -36.487765
RightShoulder -5.132049 -12.222243 -24.042286
RightArm -3.354152 36.641935 43.725604
RightForeArm 35.592356 -0.000000 18.536533
RightHand 12.808909 -0.000000 -29.091627
RightHandThumb1 -24.326973 -0.000000 -32.862282
LeftShoulder -13.483765 30.217660 12.260265
LeftArm 45.004157 -39.840053 -63.308058
LeftForeArm 11.422194 0.000000 13.999772
LeftHand -21.123187 0.000000 20.742043
LeftHandThumb1 -26.253704 0.000000 33.147579
Head -15.596390 31.069981 -8.409368
286
root 20.962792 24.618059 0.444628 16.835057 26.437022 -15.702729
RightUpLeg 4.714112 -18.678479 -27.777739
RightLeg -6.726114 -0.000000 0.000000
RightFoot -10.211582 -2.460469 50.257537
RightToeBase 13.711498 -0.000000 -0.000000
LeftUpLeg -93.668311 33.267026 6.808600
LeftLeg 98.170552 -0.000000 -0.000000
LeftFoot -30.163998 4.840839 -20.768819
LeftToeBase 5.104631 -0.000000 -0.000000
Spine 32.693528 -8.197382 -36.754035
RightShoulder -5.174503 -12.173141 -24.066171
RightArm -3.569484 36.601027 43.547205
RightForeArm 35.883241 0.000000 18.439052
RightHand 12.883409 -0.000000 -29.272452
RightHandThumb1 -24.326973 -0.000000 -32.862282
LeftShoulder -13.343525 30.066216 12.434985
LeftArm 44.694404 -40.106452 -63.401087
LeftForeArm 10.552681 0.000000 13.953170
LeftHand -21.283536 -0.000000 21.384022
LeftHandThumb1 -26.253704 0.000000 33.147579
Head -15.688842 30.885883 -8.452269
287
root 21.025417 24.510036 0.453214 16.721139 26.585338 -15.841506
RightUpLeg 4.953032 -18.852368 -27.860592
RightLeg -6.715562 -0.000000 0.000000
RightFoot -10.200194 -2.487507 50.372171
RightToeBase 13.707669 -0.000000 -0.000000
LeftUpLeg -93.949701 33.135431 6.920687
LeftLeg 98.722905 -0.000000 -0.000000
LeftFoot -30.355790 4.775795 -20.713442
LeftToeBase 4.939974 -0.000000 -0.000000
Spine 32.940501 -8.192441 -37.054577
RightShoulder -5.205852 -12.214404 -24.097319
RightArm -3.697257 36.612603 43.457331
RightForeArm 36.118111 -0.000000 18.353208
RightHand 13.080588 -0.000000 -29.436166
RightHandThumb1 -24.326973 -0.000000 -32.862282
LeftShoulder -13.272767 29.951523 12.580565
LeftArm 44.406285 -40.326576 -63.439356
LeftForeArm 9.483658 -0.000000 13.904539
LeftHand -21.466053 -0.000000 21.798668
LeftHandThumb1 -26.253704 0.000000 33.147579
Head -15.801996 30.696129 -8.490585
288
root 21.088738 24.401444 0.462298 16.585010 26.714204 -15.954833
RightUpLeg 5.205336 -18.988061 -27.973093
RightLeg -6.680348 -0.000000 0.000000
RightFoot -10.262918 -2.532528 50.482282
RightToeBase 13.784275 -0.000000 -0.000000
LeftUpLeg -94.202721 33.037830 6.996046
LeftLeg 99.284367 -0.000000 -0.000000
LeftFoot -30.558274 4.716727 -20.645758
LeftToeBase 4.861300 -0.000000 -0.000000
Spine 33.204417 -8.154733 -37.390611
RightShoulder -5.250941 -12.280459 -24.127236
RightArm -3.787234 36.654285 43.399437
RightForeArm 36.294340 0.000000 18.273027
RightHand 13.011808 0.000000 -29.599158
RightHandThumb1 -24.326973 -0.000000 -32.862282
LeftShoulder -13.215596 29.894757 12.736005
LeftArm 44.284947 -40.620054 -63.615433
LeftForeArm 8.547204 -0.000000 13.735655
LeftHand -21.477754 -0.000000 22.091993
LeftHandThumb1 -26.253704 0.000000 33.147579
Head -15.893786 30.513523 -8.495097
289
root 21.151538 24.296949 0.469135 16.482058 26.871821 -16.059276
RightUpLeg 5.435127 -19.159432 -28.079114
RightLeg -6.639073 -0.000000 0.000000
RightFoot -10.295639 -2.595577 50.580142
RightToeBase 13.731465 -0.000000 -0.000000
LeftUpLeg -94.473914 32.894783 7.065536
LeftLeg 99.817125 -0.000000 -0.000000
LeftFoot -30.748317 4.669533 -20.621826
LeftToeBase 4.758762 -0.000000 -0.000000
Spine 33.468173 -8.145649 -37.720998
RightShoulder -5.307253 -12.221439 -24.156174
RightArm -3.972324 36.540731 43.284958
RightForeArm 36.467993 -0.000000 18.120716
RightHand 13.060622 -0.000000 -29.715043
RightHandThumb1 -24.326973 -0.000000 -32.862282
LeftShoulder -13.172857 29.836351 12.869999
LeftArm 44.066633 -40.820111 -63.619597
LeftForeArm 7.352548 -0.000000 13.634617
LeftHand -21.537872 -0.000000 22.050364
LeftHandThumb1 -26.253704 0.000000 33.147579
Head -15.985159 30.290970 -8.475284
290
root 21.211288 24.194103 0.473953 16.412449 27.021813 -16.156777
RightUpLeg 5.604735 -19.425258 -28.186114
RightLeg -6.547937 -0.000000 0.000000
RightFoot -10.288908 -2.546740 50.683865
RightToeBase 13.768823 -0.000000 -0.000000
LeftUpLeg -94.783686 32.773749 7.088181
LeftLeg 100.322924 -0.000000 -0.000000
LeftFoot -30.897566 4.682951 -20.486284
LeftToeBase 4.433059 -0.000000 -0.000000
Spine 33.674167 -8.142781 -38.037596
RightShoulder -5.395403 -12.301851 -24.169097
RightArm -4.042917 36.521956 43.236387
RightForeArm 36.605706 -0.000000 18.026277
RightHand 12.954885 0.000000 -29.923792
RightHandThumb1 -24.326973 -0.000000 -32.862282
LeftShoulder -13.046320 29.795012 13.020269
LeftArm 43.761842 -41.037337 -63.507377
LeftForeArm 6.126871 -0.000000 13.452611
LeftHand -21.493841 -0.000000 22.211606
LeftHandThumb1 -26.253704 0.000000 33.147579
Head -15.985675 30.037007 -8.439254
291
root 21.272396 24.094465 0.476459 16.386555 27.140137 -16.252607
RightUpLeg 5.722557 -19.635470 -28.284774
RightLeg -6.475040 -0.000000 0.000000
RightFoot -10.280696 -2.565481 50.709658
RightToeBase 13.734697 -0.000000 -0.000000
LeftUpLeg -95.130627 32.684830 7.077187
LeftLeg 100.825322 -0.000000 -0.000000
LeftFoot -31.143778 4.531063 -20.579953
LeftToeBase 4.538965 -0.000000 -0.000000
Spine 33.809553 -8.166862 -38.365098
RightShoulder -5.443836 -12.369511 -24.166308
RightArm -4.138030 36.484204 43.160780
RightForeArm 36.709506 -0.000000 17.886840
RightHand 12.948536 -0.000000 -30.193328
RightHandThumb1 -24.326973 -0.000000 -32.862282
LeftShoulder -12.937005 29.771303 13.128775
LeftArm 43.452401 -41.308714 -63.380179
LeftForeArm 4.870279 0.000000 13.295713
LeftHand -21.573464 0.000000 22.396600
LeftHandThumb1 -26.253704 0.000000 33.147579
Head -15.917304 29.824191 -8.377060
292
root 21.332620 23.995696 0.480572 16.373521 27.278323 -16.338743
RightUpLeg 5.859551 -19.883180 -28.381542
RightLeg -6.444553 -0.000000 0.000000
RightFoot -10.312996 -2.586613 50.771682
RightToeBase 13.903591 -0.000000 -0.000000
LeftUpLeg -95.504293 32.590737 7.040608
LeftLeg 101.318889 -0.000000 -0.000000
LeftFoot -31.399794 4.291562 -20.748950
LeftToeBase 4.855702 -0.000000 -0.000000
Spine 33.932913 -8.225122 -38.692657
RightShoulder -5.519138 -12.439548 -24.153940
RightArm -4.213159 36.446480 43.094150
RightForeArm 36.809394 -0.000000 17.806523
RightHand 13.048986 -0.000000 -30.278716
RightHandThumb1 -24.326973 -0.000000 -32.862282
LeftShoulder -12.838184 29.778657 13.177610
LeftArm 43.095470 -41.539998 -63.102808
LeftForeArm 3.602647 -0.000000 13.121839
LeftHand -21.668247 -0.000000 22.770413
LeftHandThumb1 -26.253704 0.000000 33.147579
Head -15.813909 29.562197 -8.287211
